inDegrees=no
num_controls=7
num_derivatives=13
num_iterations=103
num_multipliers=7
num_parameters=0
num_slacks=7
num_states=26
objective=0.478353
objective_accelerations=0.042876
objective_balance=0.003569
objective_effort=0.039452
objective_height=0.386763
objective_ligament=0.005694
solver_duration=1420.172830
status=Solve_Succeeded
success=true
DataType=double
version=3
OpenSimVersion=4.5
endheader
time	/jointset/ground_pelvis/pelvis_tilt/value	/jointset/ground_pelvis/pelvis_tx/value	/jointset/ground_pelvis/pelvis_ty/value	/jointset/hip_l/hip_flexion_l/value	/jointset/hip_l/hip_adduction_l/value	/jointset/hip_l/hip_rotation_l/value	/jointset/back/lumbar_extension/value	/jointset/patellofemoral_l/patellar_flexion_l/value	/jointset/knee_l/knee_flexion_l/value	/jointset/knee_l/knee_adduction_l/value	/jointset/knee_l/knee_rotation_l/value	/jointset/ankle_l/ankle_angle_l/value	/jointset/subtalar_l/subtalar_angle_l/value	/jointset/ground_pelvis/pelvis_tilt/speed	/jointset/ground_pelvis/pelvis_tx/speed	/jointset/ground_pelvis/pelvis_ty/speed	/jointset/hip_l/hip_flexion_l/speed	/jointset/hip_l/hip_adduction_l/speed	/jointset/hip_l/hip_rotation_l/speed	/jointset/back/lumbar_extension/speed	/jointset/patellofemoral_l/patellar_flexion_l/speed	/jointset/knee_l/knee_flexion_l/speed	/jointset/knee_l/knee_adduction_l/speed	/jointset/knee_l/knee_rotation_l/speed	/jointset/ankle_l/ankle_angle_l/speed	/jointset/subtalar_l/subtalar_angle_l/speed	/forceset/tau_hip_flexion_l	/forceset/tau_hip_adduction_l	/forceset/tau_hip_rotation_l	/forceset/tau_knee_flexion_l	/forceset/tau_ankle_angle_l	/forceset/tau_subtalar_angle_l	/forceset/tau_lumbar_extension	lambda_cid13_p0	lambda_cid13_p1	lambda_cid13_p2	lambda_cid13_p3	lambda_cid13_p4	lambda_cid13_p5	lambda_cid14_p0	/jointset/ground_pelvis/pelvis_tilt/accel	/jointset/ground_pelvis/pelvis_tx/accel	/jointset/ground_pelvis/pelvis_ty/accel	/jointset/hip_l/hip_flexion_l/accel	/jointset/hip_l/hip_adduction_l/accel	/jointset/hip_l/hip_rotation_l/accel	/jointset/back/lumbar_extension/accel	/jointset/patellofemoral_l/patellar_flexion_l/accel	/jointset/knee_l/knee_flexion_l/accel	/jointset/knee_l/knee_adduction_l/accel	/jointset/knee_l/knee_rotation_l/accel	/jointset/ankle_l/ankle_angle_l/accel	/jointset/subtalar_l/subtalar_angle_l/accel	gamma_cid13_p0	gamma_cid13_p1	gamma_cid13_p2	gamma_cid13_p3	gamma_cid13_p4	gamma_cid13_p5	gamma_cid14_p0
1.5	0.01456674502813727	-0.008212872767380093	0.8574812721380141	0.6472739333961404	-0.3223599972255735	-0.1389418009750857	-0.7927655756869659	0.7554692713975132	0.7554692713965258	-0.106908503095026	-0.1745168275738893	0.1495901959254622	0.02295844993561868	0.3040579827418408	0.2281145116465805	0.3999922602388225	-1.913071625694207	0.08838034638651016	-0.6326716777156703	0.842089109610253	-1.939658595264619	-1.939658595264625	-0.1350960905526989	-0.001039019361282408	-0.4484568250306123	-0.05570856141103733	-0.191257451873105	0.03888458706458953	-0.004872229019678393	-0.2225976820043204	0.06786908033543018	0.0270503467095583	0.2750848290012569	-20.90664231337555	-9.92940252091989	3.232762008066403	-7.110149278121191	-670.1512814936571	-62.45661994679435	-16.07952533526039	-0.03077417266597022	0.6226039378476443	-0.5937892466556149	-0.6403835192849706	0.4617331025156524	-0.2904640366116719	1.908350936538592	-0.9212898709319389	-0.9212898709319508	-0.2749732263824552	0.06338154325984958	-0.2269228856795943	0.4534817543242411	1.599490191913146e-07	1.347771650354605e-06	-4.769458633766511e-07	1.2285975074093e-07	2.50639272528884e-07	5.217327398539827e-07	2.00854739245561e-07
1.51	0.01760560607589327	-0.005900759699645174	0.8614507804732282	0.6281128115060796	-0.3214537214076885	-0.1452837914516414	-0.7842504508039609	0.7360287212628043	0.7360287212626304	-0.1082736723702993	-0.1745257766000453	0.1450947742897803	0.02242342339687517	0.3036727406707595	0.2342886983986942	0.3938334246658748	-1.918923523352861	0.09287716976268023	-0.6356450989695813	0.8608434176057921	-1.948202546953578	-1.948202546953615	-0.1379397589310771	-0.0007284100641111621	-0.4505439189421686	-0.05127331333205927	-0.1844326565815102	0.03783163290083226	-0.004713191344086232	-0.2190258601152242	0.06866696921759979	0.0264244730173812	0.2684767888793951	-20.44700864979529	-9.808586473155911	3.294053984995904	-7.124049029170173	-666.1816351924032	-62.54588228703438	-16.76071700533766	-0.04862466423907649	0.6119511503769007	-0.6382814787715879	-0.5232111668737607	0.4438443017885676	-0.2884083452233289	1.845103323270411	-0.7836518405549021	-0.7836518405595124	-0.2891049602771641	0.01821944461563357	-0.1870121552485668	0.4418265786122352	1.289217195837491e-07	1.517392962470927e-06	-2.749766959531081e-07	1.59356846026965e-07	2.388473904149758e-07	5.357618684477423e-07	1.89503750192206e-07
1.52	0.0206393696149517	-0.003527479743092404	0.8653564302994813	0.6089000469838851	-0.3205024398867174	-0.1516530415758266	-0.7755505563225595	0.7165101908066673	0.7165101908073134	-0.1096672865926874	-0.174530955768915	0.1405809998127115	0.02193340538770702	0.3030384810032959	0.240347889410151	0.3872205584466057	-1.923400152120234	0.09738148700368893	-0.6381236072411964	0.8790430292896886	-1.955254659549619	-1.955254659549688	-0.1407850799779239	-0.0002850479001447304	-0.452127393307923	-0.04670685549597609	-0.1776078612899205	0.0367786787370664	-0.004554153668400125	-0.2154540382261377	0.06946485809976476	0.0257985993251938	0.2618687487575328	-19.987173761537	-9.688796447359385	3.356641556448951	-7.171075944316661	-662.2343886444204	-62.66258189014573	-17.43294062893061	-0.08057769194251259	0.5996047897162614	-0.6845953759198968	-0.3653297410287212	0.4632318754833767	-0.1914814401524831	1.797411674210007	-0.6229220523484172	-0.6229220523484126	-0.2753037600761896	0.08993211661891143	-0.1261989765191739	0.4797237057452781	1.01699644945072e-07	1.627853677293409e-06	-1.265917426807633e-07	1.870741584119485e-07	2.225102910408218e-07	5.37516889616813e-07	1.795446066991346e-07
1.53	0.02366555280770922	-0.001094216319758413	0.8691937363065867	0.58964943168253	-0.3195060866191934	-0.1580450686274661	-0.7666714314984864	0.696928752232518	0.6969287522330632	-0.1110890299976722	-0.1745314092435958	0.1360540059902538	0.02148974481075606	0.302161563907659	0.246281758678013	0.3801714879551385	-1.926497517960488	0.1018821030691098	-0.6402175190341669	0.8966842223800728	-1.960774230097116	-1.960774230097146	-0.1435617034220986	0.0001942450403951465	-0.4531819223804596	-0.04201033239327113	-0.1708748217024064	0.03571524426652158	-0.004448908809478034	-0.2118872327299216	0.07012043349143256	0.02510099567291634	0.2553425060543359	-19.5914524279986	-9.524081924606945	3.409158192608634	-7.143290746592494	-658.517955694713	-62.7106549010415	-18.0970455188243	-0.09674634573373814	0.5868655701115474	-0.7253981361737984	-0.2481416618566858	0.4422085416035616	-0.2085494909514398	1.73281615466029	-0.4776840833887654	-0.4776840833829351	-0.2782751590293573	0.02690551894290482	-0.08160998079397586	0.4665846778070641	7.852062183583858e-08	1.675456257491184e-06	-3.514001694406601e-08	2.054629514645647e-07	2.013438983276564e-07	5.262306716471517e-07	1.710642991138645e-07
1.54	0.02668186730403502	0.001397703311212207	0.8729584845586945	0.5703746023915052	-0.3184649807771068	-0.1644560754854509	-0.7576188261378682	0.677299876047408	0.6772998760478504	-0.1125384263415899	-0.1745270742616462	0.1315191608554363	0.02109344307788704	0.301064741717652	0.2520791309374767	0.3727090074471014	-1.928242950054055	0.1063320019158111	-0.6419195685104224	0.9137391365987677	-1.964742181742153	-1.964742181742144	-0.1463156677639213	0.0006726434277890755	-0.453697655779919	-0.03723508667960777	-0.1641417821148823	0.03465180979598725	-0.004343663950573186	-0.2083204272337026	0.07077600888310324	0.02440339202065214	0.2488162633511441	-19.19713976349827	-9.359751481197129	3.462456589508985	-7.141213937876651	-654.8455391299022	-62.78258457601662	-18.74581392596444	-0.1245587108165642	0.5723053880366394	-0.7672773792338767	-0.09494299169121012	0.4530884317394637	-0.1131089768094968	1.680155899872054	-0.3125982718565566	-0.3125982718565508	-0.2707719396057886	0.089753205989712	-0.01843984190365217	0.495468227936961	6.759078757353699e-08	1.683759379662422e-06	-1.97406270213355e-08	2.128109086499647e-07	1.885836842407356e-07	5.228660596015983e-07	1.688556187679033e-07
